inDegrees=no
num_controls=7
num_derivatives=13
num_iterations=153
num_multipliers=7
num_parameters=0
num_slacks=7
num_states=26
objective=5.192912
objective_accelerations=0.225657
objective_balance=0.008961
objective_effort=0.269466
objective_height=4.575720
objective_ligament=0.113109
solver_duration=1295.740253
status=Solve_Succeeded
success=true
DataType=double
version=3
OpenSimVersion=4.4-2022-07-23-0e9fedc
endheader
time	/jointset/ground_pelvis/pelvis_tilt/value	/jointset/ground_pelvis/pelvis_tx/value	/jointset/ground_pelvis/pelvis_ty/value	/jointset/hip_r/hip_flexion_r/value	/jointset/hip_r/hip_adduction_r/value	/jointset/hip_r/hip_rotation_r/value	/jointset/back/lumbar_extension/value	/jointset/patellofemoral_r/patellar_flexion_r/value	/jointset/knee_r/knee_flexion_r/value	/jointset/knee_r/knee_adduction_r/value	/jointset/knee_r/knee_rotation_r/value	/jointset/ankle_r/ankle_angle_r/value	/jointset/subtalar_r/subtalar_angle_r/value	/jointset/ground_pelvis/pelvis_tilt/speed	/jointset/ground_pelvis/pelvis_tx/speed	/jointset/ground_pelvis/pelvis_ty/speed	/jointset/hip_r/hip_flexion_r/speed	/jointset/hip_r/hip_adduction_r/speed	/jointset/hip_r/hip_rotation_r/speed	/jointset/back/lumbar_extension/speed	/jointset/patellofemoral_r/patellar_flexion_r/speed	/jointset/knee_r/knee_flexion_r/speed	/jointset/knee_r/knee_adduction_r/speed	/jointset/knee_r/knee_rotation_r/speed	/jointset/ankle_r/ankle_angle_r/speed	/jointset/subtalar_r/subtalar_angle_r/speed	/forceset/tau_hip_flexion_r	/forceset/tau_hip_adduction_r	/forceset/tau_hip_rotation_r	/forceset/tau_knee_flexion_r	/forceset/tau_ankle_angle_r	/forceset/tau_subtalar_angle_r	/forceset/tau_lumbar_extension	lambda_cid13_p0	lambda_cid14_p0	lambda_cid14_p1	lambda_cid14_p2	lambda_cid14_p3	lambda_cid14_p4	lambda_cid14_p5	/jointset/ground_pelvis/pelvis_tilt/accel	/jointset/ground_pelvis/pelvis_tx/accel	/jointset/ground_pelvis/pelvis_ty/accel	/jointset/hip_r/hip_flexion_r/accel	/jointset/hip_r/hip_adduction_r/accel	/jointset/hip_r/hip_rotation_r/accel	/jointset/back/lumbar_extension/accel	/jointset/patellofemoral_r/patellar_flexion_r/accel	/jointset/knee_r/knee_flexion_r/accel	/jointset/knee_r/knee_adduction_r/accel	/jointset/knee_r/knee_rotation_r/accel	/jointset/ankle_r/ankle_angle_r/accel	/jointset/subtalar_r/subtalar_angle_r/accel	gamma_cid13_p0	gamma_cid14_p0	gamma_cid14_p1	gamma_cid14_p2	gamma_cid14_p3	gamma_cid14_p4	gamma_cid14_p5
0	-0.002099830375308117	0.1289853644284577	0.9341159515132849	0.1934208783645156	-0.2193255512111569	-0.2480237736848444	-0.2903791543005566	0.2311793314021482	0.2311793314021609	0.1125813231447146	0.17422673588239	0.08934340440958972	0.07495349707551703	0	0	0	0	0	0	0	0	0	0	0	0	0	0.09272518985321987	-0.06345822878036961	-0.001019497419435046	-0.255027071906692	0.1552631543875667	-0.06846948303030002	-0.007370958483254893	-29.91250334768043	3.934440107147593	-24.72579541831824	-0.5724154507111352	-17.97451169406041	-626.1919334205212	57.53409414532298	-0.09878862206349955	-0.8673703479679878	-0.4491529887523909	4.745651122800788	0.08864951341171426	1.421086443607745	-5.37652706463529	6.409675610343485	6.409675610344042	-1.925918935600135	0.07800385665863857	2.27908826217835	0.7748768103200734	2.370155585887772e-08	1.043300390551668e-08	-1.717818698049288e-07	1.24369300037422e-07	1.206781674002273e-08	4.506320176015683e-08	-1.665131305109609e-07
0.01	-0.002101772133661638	0.1289422205062968	0.9340941803800871	0.1936514893998039	-0.2193201133669007	-0.247952586240785	-0.2906477811431595	0.2314936615898926	0.2314936615899275	0.1124846667835232	0.1742284430924715	0.08945508350016762	0.07499280175390614	-0.0003648623300274341	-0.00862003791642329	-0.004339425184169512	0.04592337755756692	0.001057242705485037	0.01418231156271628	-0.05342037346641981	0.06258600796200425	0.06258600796200592	-0.01918463075475484	0.0003429723543841243	0.02219103445858164	0.007781552803927934	0.08797261705875972	-0.07041333124881272	-0.0005258422261277008	-0.247864838358512	0.1427668688277645	-0.05910313510361918	-0.003600911575733643	-29.91574299484724	0.3917283043646136	-20.97809951356416	-1.51279475668272	-15.81489159131655	-627.3338179766282	64.73336585250624	-0.001811344012135053	-0.8580061219031788	-0.4241080523389066	4.485857450039849	0.1097120313088275	1.408551935138738	-5.279043229966124	6.141054210261767	6.141054210261708	-1.892752892861946	0.01269768647819734	2.167397165170469	0.7678748299956296	3.04725645712904e-08	1.079015105165988e-08	-2.069360328275394e-07	1.405311994574916e-07	1.701060566992577e-08	1.197509835535772e-08	-1.893245452363549e-07
0.02	-0.002106657776409739	0.1288131390832881	0.9340294608412303	0.1943353694862355	-0.219305013019147	-0.2477412259965842	-0.2914414618688878	0.23242545002151	0.2324254500215155	0.1122005605652072	0.1742336307783991	0.08978433016083143	0.07510753802324777	-0.0005887768816872596	-0.01718750016958026	-0.008589681131766912	0.09065381022735927	0.001932500698677331	0.02803456002684567	-0.1050107766257106	0.1234916487693263	0.1234916487693267	-0.03748997140745815	0.0006960951747600364	0.04351351401606423	0.0150863181905162	0.08322004426425468	-0.07736843371733816	-3.218703295720882e-05	-0.2407026048103363	0.1302705832679297	-0.04973678717704766	0.0001691353317722548	-29.92521771563555	-3.101319083548456	-17.23410766236529	-2.43841957413563	-13.66518367201216	-627.6998905572686	71.75211760150491	-0.07059906639023107	-0.8568552153144915	-0.4313191414379813	4.507062145245838	0.05225257095318301	1.355073823890377	-5.01053300320964	6.073602179407007	6.073602179406973	-1.750060915189861	0.08003394985695787	2.1053772819588	0.6795193268522361	3.724357328370306e-08	1.114729819780308e-08	-2.4209019585015e-07	1.566930988775612e-07	2.195339459982881e-08	-2.111300504944138e-08	-2.121359599617489e-07
0.03	-0.002113565819204806	0.1285992684829986	0.93392256470103	0.195460319230866	-0.2192821464917461	-0.2473931715811718	-0.2927413115121524	0.2339578544358731	0.233957854435869	0.1117380134906357	0.1742424443613013	0.09032314421224742	0.07529307077498205	-0.0008004257898547988	-0.02551523906548204	-0.0127833068328539	0.1340886915643701	0.002615388089870727	0.04151649167373653	-0.1546146813152051	0.1826956710007677	0.1826956710007678	-0.05487484263003663	0.001051249749664273	0.06417492409237374	0.0219698091063923	0.08026796586859831	-0.07327317285067225	9.813296974561729e-05	-0.2386279625915528	0.12841584153477	-0.05119151686224174	0.002939960954903439	-29.94062136582054	-3.810935954310019	-18.00626375269414	-2.296906015952993	-13.69164889806873	-628.480504357492	69.60664128841474	0.002415897870953834	-0.8100216920364486	-0.4124526294533871	4.224586176354343	0.07249053258053904	1.335810432512924	-4.88364859541689	5.799760303576432	5.799760303576444	-1.711031668724965	0.01098145912336262	2.035373082370275	0.6851810128183262	3.746246018871894e-08	6.997294711285984e-09	-2.347067625611808e-07	1.544578539918369e-07	2.606104130786879e-08	-6.271557372524743e-08	-2.101433355993377e-07
0.04	-0.002122817610891075	0.1283042628006894	0.9337739186348175	0.1970121947985633	-0.2192532143485646	-0.246912086329811	-0.2945268660810294	0.236073490684254	0.2360734906842592	0.1111059514152936	0.1742543545395343	0.09106634240680596	0.07554592184364768	-0.001057526662037559	-0.03341451657353934	-0.01693966633420342	0.1760389748384074	0.003145623856177102	0.05464072721761015	-0.2021517617486387	0.240138015574761	0.2401380155747609	-0.07139297156995174	0.00131541423720835	0.08439034264481984	0.0285499815767968	0.07731588747299971	-0.06917791198396547	0.0002284529725768811	-0.2365533203727375	0.1265610998016362	-0.05264624654737976	0.005710786578054646	-29.9614078568106	-4.474829541494432	-18.78327191167376	-2.139931864433818	-13.73134353028355	-628.5438913211906	67.29419421025999	-0.07968945919352273	-0.7711629377453758	-0.4238659014904971	4.210142532651085	0.02172224597579833	1.283534603286948	-4.597168151997627	5.721266647917366	5.721266647917319	-1.576712458657224	0.06183593238487418	2.016178977186363	0.6188556377580096	3.754625179873695e-08	2.754360283889293e-09	-2.264462654307357e-07	1.518432865431066e-07	3.015146858865386e-08	-1.044936983860227e-07	-2.076392877505799e-07
0.05	-0.002134920662075175	0.1279320587594045	0.9335837956717747	0.1989767015814954	-0.2192199120638291	-0.246302095310731	-0.2967776472019778	0.2387549588367317	0.2387549588367398	0.1103133522935595	0.1742690777440837	0.09200903891325268	0.07586274237626525	-0.00135848237729531	-0.04098922560099386	-0.02108497678238435	0.2166499165953572	0.003495100879911495	0.06728921623089965	-0.2476974742144132	0.2958696759380554	0.2958696759380501	-0.08699208052068498	0.001615360617089197	0.104035693064998	0.03476026325113322	0.07312493091176021	-0.06727583405158023	0.0005271745738660502	-0.2322442648475707	0.1200274584107056	-0.05082189330598261	0.009244016770230595	-29.98703428895492	-6.481649092090294	-18.26455095329932	-2.311478127692836	-12.65496603695356	-628.8946152092548	67.47109583186588	-0.004603354322802761	-0.7450589089347842	-0.4098924290620966	3.954703163614811	0.03860093456278803	1.245297379347764	-4.487224560244527	5.456217373058262	5.456217373057555	-1.531312577536919	0.01202343608190808	1.921728342794729	0.6140178700492659	3.583945826197171e-08	-6.237952754490375e-10	-2.067152563756314e-07	1.370298735005712e-07	3.154039381713844e-08	-1.369955048382999e-07	-1.882226449393309e-07
0.06	-0.002149894215729388	0.1274852208231082	0.9333522138417347	0.2013409444152859	-0.2191837069080604	-0.2455676611357192	-0.2994746758008573	0.2419851639213478	0.2419851639213555	0.1093688015894519	0.1742863903014993	0.09314479197757455	0.0762400464131817	-0.001631627157828996	-0.04834129557582832	-0.02523143973366732	0.2559861850082337	0.003726198063272209	0.0795293584041048	-0.2914012573353104	0.3498854020022632	0.3498854020022524	-0.101783288041644	0.001833284808651914	0.1230016542196281	0.04064668243658585	0.06893397435054885	-0.06537375611920423	0.0008258961752163723	-0.2279352093223874	0.1134938170197768	-0.04899754006459731	0.01277724696242316	-30.01676243722746	-8.445973956850091	-17.74817205627371	-2.471476906116458	-11.59817372478765	-628.5904415879406	67.50592511753493	-0.07412727224895446	-0.7266351272211485	-0.4240964021109164	3.955207863836392	-0.001953722098919037	1.201865235270112	-4.228782283022319	5.378079788100026	5.378079788099906	-1.415132172702414	0.04543149472118659	1.880301124076982	0.5540831399813437	3.405727166639454e-08	-3.965539092974382e-09	-1.865012783973836e-07	1.217028248540861e-07	3.281557159078931e-08	-1.691067294712719e-07	-1.680938928665033e-07
0.07000000000000001	-0.002167696333498583	0.1269660811502912	0.9330790758431929	0.2040923461585583	-0.2191459476273374	-0.2447130916397607	-0.3025993224986747	0.2457471002212157	0.2457471002212205	0.1082807105925294	0.1743057619472377	0.09446692671686559	0.07667443929227279	-0.001929363120938336	-0.05543838795799353	-0.02940105207384307	0.29407452778201	0.003808991331464254	0.09130898881503019	-0.3332194956172147	0.4022152761926602	0.4022152761926525	-0.115703875102415	0.002026793002267757	0.1413251702204436	0.04618662577455008	0.06489073207778807	-0.06288004766096264	0.001078928474098187	-0.2247294437015523	0.1084981365743983	-0.04778030457628504	0.01628776029700182	-30.04985846500002	-9.973403091549885	-17.45393588257008	-2.556117339204811	-10.92878722255542	-628.6807451573172	67.1435318903534	-0.007675231292608428	-0.6940020601207185	-0.4141616754467844	3.70270542869094	0.01089737191401518	1.154703140662698	-4.112056609468788	5.11744717777857	5.117447177779169	-1.360881174939604	0.004195937285347439	1.793362476495905	0.5471453291180784	2.849282606175021e-08	-8.668949975339784e-09	-1.417414199768793e-07	8.937759627947567e-08	3.214701438267425e-08	-1.989289307587063e-07	-1.256433277782569e-07
0.08	-0.002188491505482383	0.1263774194003721	0.9327640881161545	0.2072180429184837	-0.2191078601098095	-0.2437429876003631	-0.306132893981049	0.2500237364516379	0.2500237364516436	0.1070573418845786	0.1743266457660426	0.09596929374384694	0.07716287068442629	-0.002230238002112314	-0.06224571099623617	-0.0336013854329841	0.330845188337503	0.003791845425082225	0.1026362670923158	-0.3731862142469251	0.4528253881138193	0.4528253881138153	-0.1288388302501991	0.002135719420019284	0.1590481117577457	0.05145438504908393	0.0608474898050492	-0.06038633920270236	0.001331960773054274	-0.2215236780807064	0.1035024561290289	-0.04656306908794822	0.01979827363158507	-30.08543159964785	-11.46206703617774	-17.1616601199768	-2.630453020569863	-10.28305226877983	-628.1772742144761	66.65961262966297	-0.07475505586212129	-0.6686812584364223	-0.4302406059039843	3.691671420179654	-0.021941557013715	1.11139480854221	-3.858478352583656	5.034127334252393	5.034127334252394	-1.258005790105062	0.0285151395482493	1.760186231374511	0.4996463272953572	2.268436374684347e-08	-1.346021034575938e-08	-9.539795636655207e-08	5.595571093530881e-08	3.135305491767107e-08	-2.286034531206221e-07	-8.175264572127385e-08
0.09	-0.002212505578958771	0.1257221224525853	0.9324068709564813	0.2107051776501956	-0.219070588567633	-0.2426620989784123	-0.3100568364628735	0.2547981137516214	0.2547981137516183	0.1057068007079388	0.174348531363578	0.09764591363531604	0.07770245624293021	-0.002574695896466842	-0.06876581341760753	-0.03785050899065819	0.3663698595488266	0.003652879020139195	0.1134582778907481	-0.4113084264205473	0.5017692899482161	0.50176928994822	-0.1411541240392422	0.002229092763561971	0.1761792070270626	0.05642789706858387	0.05675165997038017	-0.05807816189294434	0.001574231532099675	-0.2187896888329655	0.09876776780132325	-0.04508337217096626	0.02337707184834666	-30.12261698229826	-12.87650436928132	-16.74510753566895	-2.72151004646551	-9.695216893466164	-628.0549429078096	66.46888264957049	-0.01460169998187343	-0.6364887041019011	-0.4235638043543791	3.451083416107763	-0.011308775724274	1.055137458208016	-3.745014295453077	4.782399874881566	4.782399874882819	-1.201005463785664	-0.002087778838904589	1.675074059377579	0.4909715486978851	1.363443378741784e-08	-2.243253410218409e-08	-4.549969807453253e-08	-3.821081259475012e-08	3.144745360539043e-08	-2.697944398870515e-07	1.32146692508737e-08
